<svg width="20" height="16" viewBox="0 0 20 16" fill="none" xmlns="http://www.w3.org/2000/svg">
<path d="M11.697 4.12746C11.8164 4.12746 11.8762 4.18717 11.8762 4.30658V5.05888C11.8762 5.1783 11.8164 5.238 11.697 5.238H10.0031C9.95531 5.238 9.93142 5.26189 9.93142 5.30965V6.93196C9.93142 7.05137 9.87172 7.11108 9.7523 7.11108H9C8.88059 7.11108 8.82088 7.05137 8.82088 6.93196V5.30965C8.82088 5.26189 8.797 5.238 8.74923 5.238H7.05527C6.93586 5.238 6.87615 5.1783 6.87615 5.05888V4.30658C6.87615 4.18717 6.93586 4.12746 7.05527 4.12746H8.74923C8.797 4.12746 8.82088 4.10358 8.82088 4.05581V2.2902C8.82088 2.17079 8.88059 2.11108 9 2.11108H9.7523C9.87172 2.11108 9.93142 2.17079 9.93142 2.2902V4.05581C9.93142 4.10358 9.95531 4.12746 10.0031 4.12746H11.697Z" fill="white"/>
<path d="M18.7223 2.11108H11V3.16446H18.3885L17.0317 9.49771H5.80872L4.10079 0.641561C4.03143 0.268762 3.69331 0 3.30317 0H0.407478C0.182064 0 0 0.17773 0 0.394474V0.658901C0 0.875645 0.182064 1.05337 0.407478 1.05337H3.07776L4.90707 10.5511H17.2528C17.6386 10.5511 17.9724 10.2867 18.0504 9.91819L19.5199 3.05609C19.6239 2.57492 19.2381 2.11108 18.7223 2.11108Z" fill="white"/>
<path d="M7.05286 11.7692C5.88678 11.7692 4.93744 12.7185 4.93744 13.8846C4.93744 15.0507 5.88678 16 7.05286 16C8.21894 16 9.16828 15.0507 9.16828 13.8846C9.16828 12.7185 8.22328 11.7692 7.05286 11.7692ZM7.05286 14.9856C6.44598 14.9856 5.95614 14.4915 5.95614 13.8889C5.95614 13.282 6.45031 12.7922 7.05286 12.7922C7.65974 12.7922 8.14959 13.2864 8.14959 13.8889C8.15392 14.4915 7.65974 14.9856 7.05286 14.9856Z" fill="white"/>
<path d="M15.7356 11.7692C14.5695 11.7692 13.6202 12.7185 13.6202 13.8846C13.6202 15.0507 14.5695 16 15.7356 16C16.9017 16 17.851 15.0507 17.851 13.8846C17.851 12.7185 16.906 11.7692 15.7356 11.7692ZM15.7356 14.9856C15.1287 14.9856 14.6389 14.4915 14.6389 13.8889C14.6389 13.282 15.133 12.7922 15.7356 12.7922C16.3425 12.7922 16.8323 13.2864 16.8323 13.8889C16.8366 14.4915 16.3425 14.9856 15.7356 14.9856Z" fill="white"/>
</svg>
