<svg width="220" height="220" viewBox="0 0 220 220" fill="none" xmlns="http://www.w3.org/2000/svg">
<rect x="0.5" y="0.5" width="219" height="219" rx="2.5" fill="#FCFCFB" stroke="#F0ECE4" stroke-dasharray="4 4"/>
<path d="M54.7716 149.126C54.0996 149.126 53.5023 148.995 52.9796 148.734C52.4663 148.463 52.065 148.085 51.7756 147.6C51.4956 147.105 51.3556 146.541 51.3556 145.906V142.28C51.3556 141.645 51.4956 141.09 51.7756 140.614C52.065 140.129 52.4663 139.755 52.9796 139.494C53.5023 139.223 54.0996 139.088 54.7716 139.088C55.4436 139.088 56.0363 139.219 56.5496 139.48C57.063 139.732 57.4596 140.091 57.7396 140.558C58.029 141.025 58.1736 141.566 58.1736 142.182V142.196C58.1736 142.243 58.1596 142.28 58.1316 142.308C58.1036 142.336 58.071 142.35 58.0336 142.35L56.9696 142.406C56.8763 142.406 56.8296 142.364 56.8296 142.28V142.238C56.8296 141.641 56.643 141.16 56.2696 140.796C55.8963 140.432 55.397 140.25 54.7716 140.25C54.1463 140.25 53.6423 140.432 53.2596 140.796C52.8863 141.16 52.6996 141.641 52.6996 142.238V145.962C52.6996 146.559 52.8863 147.04 53.2596 147.404C53.6423 147.768 54.1463 147.95 54.7716 147.95C55.397 147.95 55.8963 147.768 56.2696 147.404C56.643 147.04 56.8296 146.559 56.8296 145.962V145.934C56.8296 145.85 56.8763 145.808 56.9696 145.808L58.0336 145.864C58.127 145.864 58.1736 145.911 58.1736 146.004C58.1736 146.62 58.029 147.166 57.7396 147.642C57.4596 148.109 57.063 148.473 56.5496 148.734C56.0363 148.995 55.4436 149.126 54.7716 149.126ZM60.0975 149C60.0042 149 59.9575 148.953 59.9575 148.86V139.34C59.9575 139.247 60.0042 139.2 60.0975 139.2H61.1615C61.2549 139.2 61.3015 139.247 61.3015 139.34V148.86C61.3015 148.953 61.2549 149 61.1615 149H60.0975ZM64.0645 140.754C63.8031 140.754 63.5885 140.67 63.4205 140.502C63.2525 140.334 63.1685 140.119 63.1685 139.858C63.1685 139.597 63.2525 139.382 63.4205 139.214C63.5885 139.046 63.8031 138.962 64.0645 138.962C64.3258 138.962 64.5405 139.046 64.7085 139.214C64.8765 139.382 64.9605 139.597 64.9605 139.858C64.9605 140.119 64.8765 140.334 64.7085 140.502C64.5405 140.67 64.3258 140.754 64.0645 140.754ZM63.5045 148.986C63.4111 148.986 63.3645 148.939 63.3645 148.846V142.014C63.3645 141.921 63.4111 141.874 63.5045 141.874H64.5685C64.6618 141.874 64.7085 141.921 64.7085 142.014V148.846C64.7085 148.939 64.6618 148.986 64.5685 148.986H63.5045ZM69.6768 149.112C68.9675 149.112 68.3608 148.935 67.8568 148.58C67.3528 148.216 67.0075 147.726 66.8208 147.11C66.6808 146.681 66.6108 146.116 66.6108 145.416C66.6108 144.772 66.6808 144.207 66.8208 143.722C67.0075 143.125 67.3528 142.649 67.8568 142.294C68.3702 141.939 68.9768 141.762 69.6768 141.762C70.3768 141.762 70.9882 141.939 71.5108 142.294C72.0335 142.649 72.3742 143.097 72.5328 143.638C72.5888 143.787 72.6262 143.941 72.6448 144.1C72.6448 144.175 72.6028 144.221 72.5188 144.24L71.4688 144.394H71.4408C71.3755 144.394 71.3288 144.352 71.3008 144.268L71.2588 144.044C71.1842 143.727 71.0022 143.461 70.7128 143.246C70.4235 143.031 70.0735 142.924 69.6628 142.924C69.2615 142.924 68.9208 143.031 68.6408 143.246C68.3608 143.461 68.1788 143.745 68.0948 144.1C68.0108 144.436 67.9688 144.879 67.9688 145.43C67.9688 145.971 68.0108 146.41 68.0948 146.746C68.1882 147.119 68.3702 147.413 68.6408 147.628C68.9208 147.843 69.2615 147.95 69.6628 147.95C70.0735 147.95 70.4235 147.843 70.7128 147.628C71.0115 147.413 71.1982 147.133 71.2728 146.788C71.2822 146.779 71.2822 146.769 71.2728 146.76C71.2728 146.741 71.2775 146.727 71.2868 146.718V146.662C71.3148 146.587 71.3662 146.559 71.4408 146.578L72.4908 146.746C72.5655 146.765 72.6028 146.802 72.6028 146.858V146.914C72.6028 146.998 72.5795 147.101 72.5328 147.222C72.3742 147.791 72.0335 148.249 71.5108 148.594C70.9882 148.939 70.3768 149.112 69.6768 149.112ZM74.33 149C74.2366 149 74.19 148.953 74.19 148.86V139.34C74.19 139.247 74.2366 139.2 74.33 139.2H75.394C75.4873 139.2 75.534 139.247 75.534 139.34V144.73C75.534 144.749 75.5433 144.763 75.562 144.772C75.5806 144.781 75.5946 144.777 75.604 144.758L78.194 141.944C78.2313 141.897 78.2873 141.874 78.362 141.874H79.608C79.664 141.874 79.6966 141.893 79.706 141.93C79.7246 141.958 79.7153 141.995 79.678 142.042L77.872 144.128C77.8533 144.165 77.8486 144.193 77.858 144.212L80 148.832L80.014 148.888C80.014 148.963 79.972 149 79.888 149H78.768C78.6933 149 78.642 148.963 78.614 148.888L76.948 145.08C76.9293 145.033 76.906 145.029 76.878 145.066L75.562 146.522C75.5433 146.559 75.534 146.583 75.534 146.592V148.86C75.534 148.953 75.4873 149 75.394 149H74.33ZM87.3348 141.776C88.1001 141.776 88.7068 142 89.1548 142.448C89.6028 142.887 89.8268 143.484 89.8268 144.24V148.86C89.8268 148.953 89.7801 149 89.6868 149H88.6228C88.5294 149 88.4828 148.953 88.4828 148.86V144.506C88.4828 144.039 88.3474 143.661 88.0768 143.372C87.8061 143.083 87.4468 142.938 86.9988 142.938C86.5601 142.938 86.2008 143.083 85.9208 143.372C85.6408 143.661 85.5008 144.035 85.5008 144.492V148.86C85.5008 148.953 85.4541 149 85.3608 149H84.2968C84.2034 149 84.1568 148.953 84.1568 148.86V139.34C84.1568 139.247 84.2034 139.2 84.2968 139.2H85.3608C85.4541 139.2 85.5008 139.247 85.5008 139.34V142.518C85.5008 142.537 85.5054 142.551 85.5148 142.56C85.5334 142.569 85.5474 142.565 85.5568 142.546C85.9581 142.033 86.5508 141.776 87.3348 141.776ZM97.4306 144.548C97.468 144.931 97.482 145.36 97.4726 145.836C97.4726 145.929 97.426 145.976 97.3326 145.976H92.8666C92.8293 145.976 92.8106 145.995 92.8106 146.032C92.8106 146.349 92.8386 146.592 92.8946 146.76C92.9973 147.133 93.2026 147.427 93.5106 147.642C93.828 147.847 94.2246 147.95 94.7006 147.95C95.3913 147.95 95.9233 147.665 96.2966 147.096C96.3433 147.003 96.404 146.989 96.4786 147.054L97.2766 147.586C97.342 147.642 97.356 147.703 97.3186 147.768C97.0573 148.188 96.684 148.519 96.1986 148.762C95.7226 149.005 95.1813 149.126 94.5746 149.126C93.8933 149.126 93.3193 148.977 92.8526 148.678C92.386 148.379 92.036 147.955 91.8026 147.404C91.5786 146.853 91.4666 146.186 91.4666 145.402C91.4666 144.721 91.518 144.203 91.6206 143.848C91.7886 143.204 92.1246 142.695 92.6286 142.322C93.1326 141.949 93.744 141.762 94.4626 141.762C95.4053 141.762 96.11 142 96.5766 142.476C97.0433 142.943 97.328 143.633 97.4306 144.548ZM94.4626 142.924C94.0613 142.924 93.73 143.027 93.4686 143.232C93.2073 143.428 93.03 143.694 92.9366 144.03C92.8713 144.235 92.8293 144.497 92.8106 144.814C92.8106 144.851 92.8293 144.87 92.8666 144.87H96.0726C96.11 144.87 96.1286 144.851 96.1286 144.814C96.11 144.506 96.082 144.277 96.0446 144.128C95.9513 143.764 95.7646 143.475 95.4846 143.26C95.214 143.036 94.8733 142.924 94.4626 142.924ZM102.29 141.804C102.589 141.804 102.86 141.865 103.102 141.986C103.168 142.014 103.191 142.07 103.172 142.154L102.948 143.204C102.939 143.288 102.883 143.316 102.78 143.288C102.622 143.223 102.435 143.19 102.22 143.19L102.024 143.204C101.586 143.223 101.222 143.377 100.932 143.666C100.652 143.946 100.512 144.315 100.512 144.772V148.86C100.512 148.953 100.466 149 100.372 149H99.3085C99.2151 149 99.1685 148.953 99.1685 148.86V142.014C99.1685 141.921 99.2151 141.874 99.3085 141.874H100.372C100.466 141.874 100.512 141.921 100.512 142.014V142.756C100.512 142.784 100.517 142.803 100.526 142.812C100.545 142.812 100.559 142.803 100.568 142.784C100.988 142.131 101.562 141.804 102.29 141.804ZM110.022 144.548C110.06 144.931 110.074 145.36 110.064 145.836C110.064 145.929 110.018 145.976 109.924 145.976H105.458C105.421 145.976 105.402 145.995 105.402 146.032C105.402 146.349 105.43 146.592 105.486 146.76C105.589 147.133 105.794 147.427 106.102 147.642C106.42 147.847 106.816 147.95 107.292 147.95C107.983 147.95 108.515 147.665 108.888 147.096C108.935 147.003 108.996 146.989 109.07 147.054L109.868 147.586C109.934 147.642 109.948 147.703 109.91 147.768C109.649 148.188 109.276 148.519 108.79 148.762C108.314 149.005 107.773 149.126 107.166 149.126C106.485 149.126 105.911 148.977 105.444 148.678C104.978 148.379 104.628 147.955 104.394 147.404C104.17 146.853 104.058 146.186 104.058 145.402C104.058 144.721 104.11 144.203 104.212 143.848C104.38 143.204 104.716 142.695 105.22 142.322C105.724 141.949 106.336 141.762 107.054 141.762C107.997 141.762 108.702 142 109.168 142.476C109.635 142.943 109.92 143.633 110.022 144.548ZM107.054 142.924C106.653 142.924 106.322 143.027 106.06 143.232C105.799 143.428 105.622 143.694 105.528 144.03C105.463 144.235 105.421 144.497 105.402 144.814C105.402 144.851 105.421 144.87 105.458 144.87H108.664C108.702 144.87 108.72 144.851 108.72 144.814C108.702 144.506 108.674 144.277 108.636 144.128C108.543 143.764 108.356 143.475 108.076 143.26C107.806 143.036 107.465 142.924 107.054 142.924ZM118.077 142.84C118.077 142.933 118.03 142.98 117.937 142.98H116.425C116.388 142.98 116.369 142.999 116.369 143.036V146.746C116.369 147.138 116.458 147.423 116.635 147.6C116.812 147.768 117.088 147.852 117.461 147.852H117.867C117.96 147.852 118.007 147.899 118.007 147.992V148.86C118.007 148.953 117.96 149 117.867 149C117.568 149.019 117.354 149.028 117.223 149.028C116.514 149.028 115.977 148.902 115.613 148.65C115.258 148.389 115.081 147.913 115.081 147.222V143.036C115.081 142.999 115.062 142.98 115.025 142.98H114.171C114.078 142.98 114.031 142.933 114.031 142.84V142.014C114.031 141.921 114.078 141.874 114.171 141.874H115.025C115.062 141.874 115.081 141.855 115.081 141.818V140.166C115.081 140.073 115.128 140.026 115.221 140.026H116.229C116.322 140.026 116.369 140.073 116.369 140.166V141.818C116.369 141.855 116.388 141.874 116.425 141.874H117.937C118.03 141.874 118.077 141.921 118.077 142.014V142.84ZM122.479 149.112C121.788 149.112 121.186 148.939 120.673 148.594C120.16 148.239 119.8 147.749 119.595 147.124C119.427 146.62 119.343 146.051 119.343 145.416C119.343 144.753 119.422 144.193 119.581 143.736C119.786 143.12 120.146 142.639 120.659 142.294C121.172 141.939 121.784 141.762 122.493 141.762C123.165 141.762 123.748 141.939 124.243 142.294C124.747 142.639 125.106 143.115 125.321 143.722C125.489 144.198 125.573 144.758 125.573 145.402C125.573 146.055 125.489 146.629 125.321 147.124C125.116 147.749 124.761 148.239 124.257 148.594C123.753 148.939 123.16 149.112 122.479 149.112ZM122.479 147.95C122.852 147.95 123.179 147.847 123.459 147.642C123.739 147.427 123.94 147.129 124.061 146.746C124.164 146.391 124.215 145.953 124.215 145.43C124.215 144.907 124.168 144.473 124.075 144.128C123.954 143.745 123.753 143.451 123.473 143.246C123.193 143.031 122.852 142.924 122.451 142.924C122.068 142.924 121.737 143.031 121.457 143.246C121.177 143.451 120.976 143.745 120.855 144.128C120.752 144.455 120.701 144.889 120.701 145.43C120.701 145.971 120.752 146.41 120.855 146.746C120.967 147.129 121.163 147.427 121.443 147.642C121.732 147.847 122.078 147.95 122.479 147.95ZM134.377 142.014C134.377 141.921 134.424 141.874 134.517 141.874H135.567C135.661 141.874 135.707 141.921 135.707 142.014V148.86C135.707 148.953 135.661 149 135.567 149H134.517C134.424 149 134.377 148.953 134.377 148.86V148.342C134.377 148.323 134.368 148.314 134.349 148.314C134.34 148.305 134.326 148.309 134.307 148.328C133.934 148.841 133.36 149.098 132.585 149.098C132.128 149.098 131.703 149.009 131.311 148.832C130.929 148.655 130.621 148.393 130.387 148.048C130.154 147.703 130.037 147.283 130.037 146.788V142.014C130.037 141.921 130.084 141.874 130.177 141.874H131.227C131.321 141.874 131.367 141.921 131.367 142.014V146.368C131.367 146.853 131.493 147.236 131.745 147.516C132.007 147.796 132.371 147.936 132.837 147.936C133.304 147.936 133.677 147.796 133.957 147.516C134.237 147.227 134.377 146.844 134.377 146.368V142.014ZM143.45 143.666C143.628 144.17 143.716 144.767 143.716 145.458C143.716 146.111 143.642 146.676 143.492 147.152C143.296 147.777 142.974 148.263 142.526 148.608C142.078 148.944 141.504 149.112 140.804 149.112C140.487 149.112 140.184 149.051 139.894 148.93C139.614 148.799 139.372 148.617 139.166 148.384C139.148 148.365 139.129 148.361 139.11 148.37C139.101 148.379 139.096 148.393 139.096 148.412V151.534C139.096 151.627 139.05 151.674 138.956 151.674H137.892C137.799 151.674 137.752 151.627 137.752 151.534V142.014C137.752 141.921 137.799 141.874 137.892 141.874H138.956C139.05 141.874 139.096 141.921 139.096 142.014V142.476C139.096 142.495 139.101 142.509 139.11 142.518C139.129 142.527 139.148 142.523 139.166 142.504C139.372 142.271 139.614 142.089 139.894 141.958C140.174 141.827 140.478 141.762 140.804 141.762C141.476 141.762 142.032 141.93 142.47 142.266C142.918 142.593 143.245 143.059 143.45 143.666ZM141.91 147.278C142.209 146.83 142.358 146.214 142.358 145.43C142.358 144.711 142.242 144.133 142.008 143.694C141.738 143.181 141.294 142.924 140.678 142.924C140.137 142.924 139.726 143.176 139.446 143.68C139.222 144.081 139.11 144.669 139.11 145.444C139.11 146.228 139.232 146.825 139.474 147.236C139.745 147.712 140.142 147.95 140.664 147.95C141.224 147.95 141.64 147.726 141.91 147.278ZM145.615 149C145.522 149 145.475 148.953 145.475 148.86V139.34C145.475 139.247 145.522 139.2 145.615 139.2H146.679C146.772 139.2 146.819 139.247 146.819 139.34V148.86C146.819 148.953 146.772 149 146.679 149H145.615ZM151.682 149.112C150.991 149.112 150.389 148.939 149.876 148.594C149.363 148.239 149.003 147.749 148.798 147.124C148.63 146.62 148.546 146.051 148.546 145.416C148.546 144.753 148.625 144.193 148.784 143.736C148.989 143.12 149.349 142.639 149.862 142.294C150.375 141.939 150.987 141.762 151.696 141.762C152.368 141.762 152.951 141.939 153.446 142.294C153.95 142.639 154.309 143.115 154.524 143.722C154.692 144.198 154.776 144.758 154.776 145.402C154.776 146.055 154.692 146.629 154.524 147.124C154.319 147.749 153.964 148.239 153.46 148.594C152.956 148.939 152.363 149.112 151.682 149.112ZM151.682 147.95C152.055 147.95 152.382 147.847 152.662 147.642C152.942 147.427 153.143 147.129 153.264 146.746C153.367 146.391 153.418 145.953 153.418 145.43C153.418 144.907 153.371 144.473 153.278 144.128C153.157 143.745 152.956 143.451 152.676 143.246C152.396 143.031 152.055 142.924 151.654 142.924C151.271 142.924 150.94 143.031 150.66 143.246C150.38 143.451 150.179 143.745 150.058 144.128C149.955 144.455 149.904 144.889 149.904 145.43C149.904 145.971 149.955 146.41 150.058 146.746C150.17 147.129 150.366 147.427 150.646 147.642C150.935 147.847 151.281 147.95 151.682 147.95ZM159.14 141.762C159.709 141.762 160.204 141.865 160.624 142.07C161.053 142.266 161.38 142.546 161.604 142.91C161.837 143.265 161.954 143.671 161.954 144.128V148.86C161.954 148.953 161.907 149 161.814 149H160.75C160.656 149 160.61 148.953 160.61 148.86V148.356C160.61 148.309 160.586 148.3 160.54 148.328C160.297 148.58 159.998 148.776 159.644 148.916C159.298 149.047 158.911 149.112 158.482 149.112C157.791 149.112 157.217 148.939 156.76 148.594C156.312 148.239 156.088 147.707 156.088 146.998C156.088 146.27 156.34 145.701 156.844 145.29C157.357 144.87 158.071 144.66 158.986 144.66H160.554C160.591 144.66 160.61 144.641 160.61 144.604V144.226C160.61 143.815 160.488 143.498 160.246 143.274C160.012 143.041 159.653 142.924 159.168 142.924C158.776 142.924 158.454 143.003 158.202 143.162C157.959 143.311 157.81 143.517 157.754 143.778C157.726 143.871 157.67 143.913 157.586 143.904L156.452 143.75C156.358 143.731 156.316 143.694 156.326 143.638C156.4 143.087 156.694 142.639 157.208 142.294C157.721 141.939 158.365 141.762 159.14 141.762ZM158.776 147.978C159.27 147.978 159.7 147.847 160.064 147.586C160.428 147.325 160.61 146.993 160.61 146.592V145.766C160.61 145.729 160.591 145.71 160.554 145.71H159.238C158.687 145.71 158.248 145.817 157.922 146.032C157.595 146.247 157.432 146.545 157.432 146.928C157.432 147.273 157.553 147.535 157.796 147.712C158.048 147.889 158.374 147.978 158.776 147.978ZM168.192 139.34C168.192 139.247 168.239 139.2 168.332 139.2H169.396C169.489 139.2 169.536 139.247 169.536 139.34V148.86C169.536 148.953 169.489 149 169.396 149H168.332C168.239 149 168.192 148.953 168.192 148.86V148.398C168.192 148.379 168.183 148.365 168.164 148.356C168.155 148.347 168.141 148.351 168.122 148.37C167.917 148.603 167.674 148.785 167.394 148.916C167.114 149.047 166.811 149.112 166.484 149.112C165.812 149.112 165.252 148.949 164.804 148.622C164.365 148.286 164.043 147.815 163.838 147.208C163.661 146.713 163.572 146.116 163.572 145.416C163.572 144.763 163.647 144.198 163.796 143.722C163.992 143.106 164.314 142.625 164.762 142.28C165.21 141.935 165.784 141.762 166.484 141.762C166.801 141.762 167.1 141.827 167.38 141.958C167.669 142.079 167.917 142.257 168.122 142.49C168.141 142.509 168.155 142.513 168.164 142.504C168.183 142.495 168.192 142.481 168.192 142.462V139.34ZM167.842 147.194C168.057 146.802 168.164 146.214 168.164 145.43C168.164 144.646 168.047 144.049 167.814 143.638C167.543 143.162 167.147 142.924 166.624 142.924C166.064 142.924 165.649 143.148 165.378 143.596C165.079 144.063 164.93 144.679 164.93 145.444C164.93 146.163 165.047 146.741 165.28 147.18C165.551 147.693 165.994 147.95 166.61 147.95C167.151 147.95 167.562 147.698 167.842 147.194Z" fill="black"/>
<path d="M98.25 80.5C101.094 80.5 103.5 78.2031 103.5 75.25C103.5 72.4062 101.094 70 98.25 70C95.2969 70 93 72.4062 93 75.25C93 78.2031 95.2969 80.5 98.25 80.5ZM98.25 73.5C99.125 73.5 100 74.375 100 75.25C100 76.2344 99.125 77 98.25 77C97.2656 77 96.5 76.2344 96.5 75.25C96.5 74.375 97.2656 73.5 98.25 73.5ZM131.5 63H89.5C87.5312 63 86 64.6406 86 66.5V108.5C86 110.469 87.5312 112 89.5 112H131.5C133.359 112 135 110.469 135 108.5V66.5C135 64.6406 133.359 63 131.5 63ZM131.5 108.5H89.5V99.75H131.5V108.5ZM95.2969 96.25L100.984 88.7031L105.359 94.5L104.047 96.25H95.2969ZM108.422 96.25L116.734 85.2031L125.047 96.25H108.422ZM131.5 96.25H129.422L118.156 81.2656C117.391 80.3906 115.969 80.3906 115.312 81.2656L107.547 91.6562L102.406 84.7656C101.641 83.8906 100.219 83.8906 99.5625 84.7656L90.9219 96.25H89.5V66.5H131.5V96.25Z" fill="#BDB196"/>
</svg>
