<svg width="49" height="49" viewBox="0 0 49 49" fill="none" xmlns="http://www.w3.org/2000/svg">
<path d="M33.4004 5.07227C31.3906 3.44531 27.9453 0 24.5 0C20.959 0 17.6094 3.34961 15.5039 5.07227C12.25 7.65625 5.07227 13.4941 1.62695 16.2695C0.669922 17.0352 0 18.5664 0 19.8105V44.4062C0 46.9902 2.00977 49 4.59375 49H44.4062C46.8945 49 49 46.9902 49 44.4062V19.8105C49 18.5664 48.2344 17.0352 47.2773 16.2695C43.832 13.4941 36.6543 7.65625 33.4004 5.07227ZM44.4062 45.9375H4.59375C3.73242 45.9375 3.0625 45.2676 3.0625 44.4062V19.8105C3.0625 19.332 3.25391 18.8535 3.54102 18.5664C6.125 16.5566 15.2168 9.1875 17.418 7.46484C19.1406 6.125 22.2031 3.0625 24.5 3.0625C26.7012 3.0625 29.7637 6.125 31.4863 7.46484C33.6875 9.1875 42.7793 16.5566 45.3633 18.5664C45.6504 18.8535 45.9375 19.332 45.9375 19.8105V44.4062C45.9375 45.2676 45.1719 45.9375 44.4062 45.9375ZM43.5449 25.2656L43.0664 24.6914C42.6836 24.2129 41.918 24.1172 41.4395 24.5C39.2383 26.3184 36.1758 28.7109 31.4863 32.4434C29.8594 33.7832 26.7012 36.8457 24.5 36.75C22.2031 36.8457 19.0449 33.7832 17.418 32.4434C12.7285 28.7109 9.66602 26.3184 7.46484 24.5C6.98633 24.1172 6.2207 24.2129 5.83789 24.6914L5.35938 25.2656C4.97656 25.7441 5.07227 26.5098 5.55078 26.8926C7.75195 28.7109 10.8145 31.1035 15.5039 34.8359C17.5137 36.4629 20.959 39.9082 24.4043 39.8125C27.9453 39.9082 31.3906 36.4629 33.4004 34.8359C38.0898 31.1035 41.1523 28.7109 43.3535 26.8926C43.832 26.5098 43.9277 25.7441 43.5449 25.2656Z" fill="#BDB196"/>
</svg>
