<svg width="12" height="26" viewBox="0 0 12 26" fill="none" xmlns="http://www.w3.org/2000/svg">
<path d="M0 14H2V16H0V14Z" fill="#005494"/>
<path d="M4 14H8V16H4V14Z" fill="#005494"/>
<path d="M8 14H12V16H8V14Z" fill="#005494"/>
<path d="M0 19H2V21H0V19Z" fill="#005494"/>
<path d="M4 19H8V21H4V19Z" fill="#005494"/>
<path d="M8 19H12V21H8V19Z" fill="#005494"/>
<path d="M0 24H2V26H0V24Z" fill="#005494"/>
<path d="M4 24H8V26H4V24Z" fill="#005494"/>
<path d="M8 24H12V26H8V24Z" fill="#005494"/>
<path d="M0 0H2V2H0V0Z" fill="#BCAF93"/>
<path d="M4 0H8V2H4V0Z" fill="#BCAF93"/>
<path d="M8 0H12V2H8V0Z" fill="#BCAF93"/>
<path d="M0 5H2V7H0V5Z" fill="#BCAF93"/>
<path d="M4 5H8V7H4V5Z" fill="#BCAF93"/>
<path d="M8 5H12V7H8V5Z" fill="#BCAF93"/>
<path d="M0 10H2V12H0V10Z" fill="#BCAF93"/>
<path d="M4 10H8V12H4V10Z" fill="#BCAF93"/>
<path d="M8 10H12V12H8V10Z" fill="#BCAF93"/>
</svg>
