<svg width="37" height="49" viewBox="0 0 37 49" fill="none" xmlns="http://www.w3.org/2000/svg">
<path d="M18.375 0C8.23047 0 0 8.32617 0 18.375C0 25.7441 2.39258 27.9453 16.4609 48.1387C16.9395 48.7129 17.6094 49 18.375 49C19.0449 49 19.7148 48.7129 20.1934 48.1387C34.2617 27.9453 36.75 25.7441 36.75 18.375C36.75 8.32617 28.4238 0 18.375 0ZM18.375 45.3633C16.4609 42.6836 14.7383 40.3867 13.3027 38.2812C4.01953 25.0742 3.0625 23.543 3.0625 18.375C3.0625 9.95312 9.85742 3.0625 18.375 3.0625C26.7969 3.0625 33.6875 9.95312 33.6875 18.375C33.6875 23.543 32.6348 25.0742 23.3516 38.2812C21.8203 40.3867 20.1934 42.7793 18.375 45.3633ZM26.7969 16.8438H19.9062V9.95312C19.9062 9.57031 19.5234 9.1875 19.1406 9.1875H17.6094C17.1309 9.1875 16.8438 9.57031 16.8438 9.95312V16.8438H9.95312C9.47461 16.8438 9.1875 17.2266 9.1875 17.6094V19.1406C9.1875 19.6191 9.47461 19.9062 9.95312 19.9062H16.8438V26.7969C16.8438 27.2754 17.1309 27.5625 17.6094 27.5625H19.1406C19.5234 27.5625 19.9062 27.2754 19.9062 26.7969V19.9062H26.7969C27.1797 19.9062 27.5625 19.6191 27.5625 19.1406V17.6094C27.5625 17.2266 27.1797 16.8438 26.7969 16.8438Z" fill="#BDB196"/>
</svg>
