<svg width="470" height="6" viewBox="0 0 470 6" fill="none" xmlns="http://www.w3.org/2000/svg">
<g clip-path="url(#clip0)">
<rect x="-235" y="-262" width="1440" height="852" fill="white"/>
<rect width="470" height="282" rx="3" fill="#F8F7F5"/>
<circle cx="11" r="5" fill="white"/>
<circle cx="27" r="5" fill="white"/>
<circle cx="43" r="5" fill="white"/>
<circle cx="59" r="5" fill="white"/>
<circle cx="123" r="5" fill="white"/>
<circle cx="75" r="5" fill="white"/>
<circle cx="91" r="5" fill="white"/>
<circle cx="107" r="5" fill="white"/>
<circle cx="171" r="5" fill="white"/>
<circle cx="139" r="5" fill="white"/>
<circle cx="155" r="5" fill="white"/>
<circle cx="187" r="5" fill="white"/>
<circle cx="235" r="5" fill="white"/>
<circle cx="203" r="5" fill="white"/>
<circle cx="219" r="5" fill="white"/>
<circle cx="251" r="5" fill="white"/>
<circle cx="299" r="5" fill="white"/>
<circle cx="267" r="5" fill="white"/>
<circle cx="283" r="5" fill="white"/>
<circle cx="315" r="5" fill="white"/>
<circle cx="363" r="5" fill="white"/>
<circle cx="331" r="5" fill="white"/>
<circle cx="347" r="5" fill="white"/>
<circle cx="379" r="5" fill="white"/>
<circle cx="395" r="5" fill="white"/>
<circle cx="411" r="5" fill="white"/>
<circle cx="427" r="5" fill="white"/>
<circle cx="443" r="5" fill="white"/>
<circle cx="459" r="5" fill="white"/>
</g>
<defs>
<clipPath id="clip0">
<rect x="-235" y="-262" width="1440" height="852" fill="white"/>
</clipPath>
</defs>
</svg>
