<svg width="20" height="16" viewBox="0 0 20 16" fill="none" xmlns="http://www.w3.org/2000/svg">
<path d="M18.7223 2.11108H9V3.16446H18.3885L17.0317 9.49771H5.80872L4.58629 3.16446L4.38255 2.10675L4.10079 0.641561C4.03143 0.268762 3.69331 0 3.30317 0H0.407478C0.182064 0 0 0.17773 0 0.394474V0.658901C0 0.875645 0.182064 1.05337 0.407478 1.05337H3.07776L4.90707 10.5511H6.01246H7.88079H17.2528C17.6386 10.5511 17.9724 10.2867 18.0504 9.91819L19.5199 3.05609C19.6239 2.57492 19.2381 2.11108 18.7223 2.11108Z" fill="#BDB095"/>
<path d="M7.05292 11.7692C5.88684 11.7692 4.9375 12.7185 4.9375 13.8846C4.9375 15.0507 5.88684 16 7.05292 16C8.219 16 9.16834 15.0507 9.16834 13.8846C9.16834 12.7185 8.22334 11.7692 7.05292 11.7692ZM7.05292 14.9856C6.44604 14.9856 5.9562 14.4915 5.9562 13.8889C5.9562 13.282 6.45037 12.7922 7.05292 12.7922C7.6598 12.7922 8.14964 13.2864 8.14964 13.8889C8.15398 14.4915 7.6598 14.9856 7.05292 14.9856Z" fill="#BDB095"/>
<path d="M15.7355 11.7692C14.5695 11.7692 13.6201 12.7185 13.6201 13.8846C13.6201 15.0507 14.5695 16 15.7355 16C16.9016 16 17.8509 15.0507 17.8509 13.8846C17.8509 12.7185 16.9059 11.7692 15.7355 11.7692ZM15.7355 14.9856C15.1287 14.9856 14.6388 14.4915 14.6388 13.8889C14.6388 13.282 15.133 12.7922 15.7355 12.7922C16.3424 12.7922 16.8323 13.2864 16.8323 13.8889C16.8366 14.4915 16.3424 14.9856 15.7355 14.9856Z" fill="#BDB095"/>
</svg>
