<svg width="12" height="26" viewBox="0 0 12 26" fill="none" xmlns="http://www.w3.org/2000/svg">
<path d="M0 14H2V16H0V14Z" fill="#005494"/>
<path d="M5 14H7V16H5V14Z" fill="#005494"/>
<path d="M10 14H12V16H10V14Z" fill="#005494"/>
<path d="M0 19H2V21H0V19Z" fill="#005494"/>
<path d="M5 19H7V21H5V19Z" fill="#005494"/>
<path d="M10 19H12V21H10V19Z" fill="#005494"/>
<path d="M0 24H2V26H0V24Z" fill="#005494"/>
<path d="M5 24H7V26H5V24Z" fill="#005494"/>
<path d="M10 24H12V26H10V24Z" fill="#005494"/>
<path d="M0 0H2V2H0V0Z" fill="#BCAF93"/>
<path d="M5 0H7V2H5V0Z" fill="#BCAF93"/>
<path d="M10 0H12V2H10V0Z" fill="#BCAF93"/>
<path d="M0 5H2V7H0V5Z" fill="#BCAF93"/>
<path d="M5 5H7V7H5V5Z" fill="#BCAF93"/>
<path d="M10 5H12V7H10V5Z" fill="#BCAF93"/>
<path d="M0 10H2V12H0V10Z" fill="#BCAF93"/>
<path d="M5 10H7V12H5V10Z" fill="#BCAF93"/>
<path d="M10 10H12V12H10V10Z" fill="#BCAF93"/>
</svg>
