<svg width="17" height="16" viewBox="0 0 17 16" fill="none" xmlns="http://www.w3.org/2000/svg">
<path d="M16.0074 14.0056V15.0028C16.0074 15.5535 15.5609 16 15.0102 16H0.997209C0.446512 16 0 15.5535 0 15.0028V14.0056C0 11.7953 1.79349 10.0019 4.00372 10.0019C6.89116 10.0019 6.22884 10.5005 8.00744 10.5005C9.78605 10.5005 9.11628 10.0019 12.0112 10.0019C14.214 10.0019 16.0074 11.7953 16.0074 14.0056ZM8 11.5051C6.10233 11.5051 6.65302 11.0065 3.99628 11.0065C2.34419 11.0065 0.997209 12.3535 0.997209 14.0056V15.0028H15.0028V14.0056C15.0028 12.3535 13.6558 11.0065 12.0037 11.0065C9.34698 11.0065 9.90512 11.5051 8 11.5051ZM12.5023 4.50233C12.5023 6.98791 10.4856 9.00465 8 9.00465C5.51442 9.00465 3.49767 6.98791 3.49767 4.50233C3.49767 2.01674 5.51442 0 8 0C10.4856 0 12.5023 2.01674 12.5023 4.50233ZM4.50233 4.50233C4.50233 6.43721 6.07256 8 8 8C9.92744 8 11.4977 6.42977 11.4977 4.50233C11.4977 2.57488 9.92744 1.00465 8 1.00465C6.07256 1.00465 4.50233 2.56744 4.50233 4.50233Z" fill="#BDB095"/>
</svg>
