<svg width="20" height="16" viewBox="0 0 20 16" fill="none" xmlns="http://www.w3.org/2000/svg">
<path d="M7 8C9.1875 8 11 6.21875 11 4C11 1.8125 9.1875 0 7 0C4.78125 0 3 1.8125 3 4C3 6.21875 4.78125 8 7 8ZM7 1C8.625 1 10 2.375 10 4C10 5.65625 8.625 7 7 7C5.34375 7 4 5.65625 4 4C4 2.375 5.34375 1 7 1ZM19.6875 7.40625L18.5938 6.3125C18.4062 6.125 18.1562 6 17.9062 6C17.625 6 17.375 6.125 17.1875 6.3125L10.2188 13.25L10 15.4062C9.96875 15.7188 10.2188 16 10.5312 16C10.5625 16 10.5938 16 10.5938 16L12.75 15.7812L19.6875 8.8125C20.0938 8.4375 20.0938 7.78125 19.6875 7.40625ZM12.2812 14.8125L11.0312 14.9688L11.1875 13.7188L16.0938 8.8125L17.1875 9.90625L12.2812 14.8125ZM17.875 9.21875L16.7812 8.125L17.9062 7V7.03125L19 8.125L17.875 9.21875ZM4.1875 10C4.8125 10 5.40625 10.5 7 10.5C8.5625 10.5 9.1875 10 9.78125 10C10.4375 10 11.0312 10.2188 11.5312 10.5312L12.25 9.84375C11.5625 9.3125 10.7188 9.03125 9.78125 9.03125C8.875 9.03125 8.46875 9.53125 7 9.53125C5.5 9.53125 5.09375 9.03125 4.1875 9.03125C1.875 9 0 10.9062 0 13.2188V14.5C0 15.3438 0.65625 16 1.5 16H9.09375C9 15.7812 8.96875 15.5312 9 15.2812L9.03125 15H1.5C1.21875 15 1 14.7812 1 14.5V13.2188C1 11.4375 2.40625 10 4.1875 10Z" fill="#BDB096"/>
</svg>
